<svg width="454" height="491" viewBox="0 0 454 491" fill="none" xmlns="http://www.w3.org/2000/svg">
<g id="delenieNaOdnoznachnie" clip-path="url(#clip0_147_19)">
<g id="bgTrenager">
<rect id="Rectangle 83" x="1.5" y="1.5" width="451" height="488" rx="13.5" fill="#AACBEA" stroke="#26578F" stroke-width="3"/>
<path id="Line 12" d="M239 33L239 133" stroke="#606060" stroke-width="4" stroke-linecap="round"/>
<path id="Line 13" d="M239 78L343 78" stroke="#606060" stroke-width="4" stroke-linecap="round"/>
<path id="Line 14" d="M125 138H153" stroke="#606060" stroke-width="4" stroke-linecap="round"/>
<path id="Line 16" d="M101 78.5H118" stroke="#606060" stroke-width="3" stroke-linecap="round"/>
<path id="Line 17" d="M101 194.5H118" stroke="#606060" stroke-width="3" stroke-linecap="round"/>
<path id="Line 18" d="M101 308H118" stroke="#606060" stroke-width="3" stroke-linecap="round"/>
<path id="Line 15" d="M125 250H178" stroke="#606060" stroke-width="4" stroke-linecap="round"/>
<path id="Line 19" d="M174 366H210" stroke="#606060" stroke-width="4" stroke-linecap="round"/>
<path id="Arrow 1" d="M110.707 112.707C111.098 112.317 111.098 111.683 110.707 111.293L104.343 104.929C103.953 104.538 103.319 104.538 102.929 104.929C102.538 105.319 102.538 105.953 102.929 106.343L108.586 112L102.929 117.657C102.538 118.047 102.538 118.681 102.929 119.071C103.319 119.462 103.953 119.462 104.343 119.071L110.707 112.707ZM72 113L110 113V111L72 111V113Z" fill="#A8E5FF"/>
<path id="Arrow 4" d="M110.707 167.707C111.098 167.317 111.098 166.683 110.707 166.293L104.343 159.929C103.953 159.538 103.319 159.538 102.929 159.929C102.538 160.319 102.538 160.953 102.929 161.343L108.586 167L102.929 172.657C102.538 173.047 102.538 173.681 102.929 174.071C103.319 174.462 103.953 174.462 104.343 174.071L110.707 167.707ZM72 168H110V166H72V168Z" fill="#DEFFA8"/>
<path id="Arrow 6" d="M110.707 279.707C111.098 279.317 111.098 278.683 110.707 278.293L104.343 271.929C103.953 271.538 103.319 271.538 102.929 271.929C102.538 272.319 102.538 272.953 102.929 273.343L108.586 279L102.929 284.657C102.538 285.047 102.538 285.681 102.929 286.071C103.319 286.462 103.953 286.462 104.343 286.071L110.707 279.707ZM72 280H110V278H72V280Z" fill="#FD98B8"/>
<path id="Arrow 2" d="M268.707 144.293C268.317 143.902 267.683 143.902 267.293 144.293L260.929 150.657C260.538 151.047 260.538 151.681 260.929 152.071C261.319 152.462 261.953 152.462 262.343 152.071L268 146.414L273.657 152.071C274.047 152.462 274.681 152.462 275.071 152.071C275.462 151.681 275.462 151.047 275.071 150.657L268.707 144.293ZM269 177V145H267V177H269Z" fill="#A8E5FF"/>
<path id="Arrow 3" d="M296.707 144.293C296.317 143.902 295.683 143.902 295.293 144.293L288.929 150.657C288.538 151.047 288.538 151.681 288.929 152.071C289.319 152.462 289.953 152.462 290.343 152.071L296 146.414L301.657 152.071C302.047 152.462 302.681 152.462 303.071 152.071C303.462 151.681 303.462 151.047 303.071 150.657L296.707 144.293ZM297 177V145H295V177H297Z" fill="#DEFFA8"/>
<path id="Arrow 5" d="M324.707 144.293C324.317 143.902 323.683 143.902 323.293 144.293L316.929 150.657C316.538 151.047 316.538 151.681 316.929 152.071C317.319 152.462 317.953 152.462 318.343 152.071L324 146.414L329.657 152.071C330.047 152.462 330.681 152.462 331.071 152.071C331.462 151.681 331.462 151.047 331.071 150.657L324.707 144.293ZM325 177V145H323V177H325Z" fill="#FD98B8"/>
<path id="Line 20" d="M46 475.5L130 474.5" stroke="#26578F" stroke-width="5" stroke-linecap="round"/>
<path id="Line 21" d="M185.03 475H272.03" stroke="#047415" stroke-width="5" stroke-linecap="round"/>
<path id="Line 22" d="M325.03 475H409.03" stroke="#FF5656" stroke-width="5" stroke-linecap="round"/>
<text id="&#208;&#180;&#208;&#181;&#208;&#187;&#208;&#184;&#208;&#188;&#208;&#190;&#208;&#181;" fill="#26578F" xml:space="preserve" style="white-space: pre" font-family="Roboto" font-size="20" letter-spacing="0em"><tspan x="47.0298" y="469.336">&#x434;&#x435;&#x43b;&#x438;&#x43c;&#x43e;&#x435;</tspan></text>
<text id="&#208;&#180;&#208;&#181;&#208;&#187;&#208;&#184;&#209;&#130;&#208;&#181;&#208;&#187;&#209;&#140;" fill="#047415" xml:space="preserve" style="white-space: pre" font-family="Roboto" font-size="20" letter-spacing="0em"><tspan x="185.03" y="469.336">&#x434;&#x435;&#x43b;&#x438;&#x442;&#x435;&#x43b;&#x44c;</tspan></text>
<text id="&#209;&#135;&#208;&#176;&#209;&#129;&#209;&#130;&#208;&#189;&#208;&#190;&#208;&#181;" fill="#FF5656" xml:space="preserve" style="white-space: pre" font-family="Roboto" font-size="20" letter-spacing="0em"><tspan x="329.03" y="469.336">&#x447;&#x430;&#x441;&#x442;&#x43d;&#x43e;&#x435;</tspan></text>
<rect id="Rectangle 89" x="242" y="188" width="157" height="233" rx="9" stroke="#26578F" stroke-width="2"/>
<rect id="Rectangle 90" x="35.5" y="447.5" width="384" height="37" rx="9.5" stroke="white"/>
</g>
<text id="delimoe" fill="#26578F" xml:space="preserve" style="white-space: pre" font-family="Roboto" font-size="48" letter-spacing="0em"><tspan x="125" y="72.4062">368</tspan></text>
<text id="inputValue1_1" fill="#5188C7" xml:space="preserve" style="white-space: pre" font-family="Roboto" font-size="48" letter-spacing="0em"><tspan x="125" y="128.406">2</tspan></text>
<text id="inputValue1_2" fill="#D9D9D9" xml:space="preserve" style="white-space: pre" font-family="Roboto" font-size="48" letter-spacing="0em"><tspan x="152" y="128.406">?</tspan></text>
<text id="inputValue1_3" fill="#D9D9D9" xml:space="preserve" style="white-space: pre" font-family="Roboto" font-size="48" letter-spacing="0em"><tspan x="180" y="128.406">?</tspan></text>
<text id="inputValue2_1" fill="#058F6F" xml:space="preserve" style="white-space: pre" font-family="Roboto" font-size="48" letter-spacing="0em"><tspan x="124" y="183.406">1</tspan></text>
<text id="inputValue2_2" fill="#058F6F" xml:space="preserve" style="white-space: pre" font-family="Roboto" font-size="48" letter-spacing="0em"><tspan x="152" y="183.406">6</tspan></text>
<text id="inputValue2_3" fill="#D9D9D9" xml:space="preserve" style="white-space: pre" font-family="Roboto" font-size="48" letter-spacing="0em"><tspan x="180" y="183.406">?</tspan></text>
<text id="inputValue3_1" fill="#5188C7" xml:space="preserve" style="white-space: pre" font-family="Roboto" font-size="48" letter-spacing="0em"><tspan x="124" y="240.406">1</tspan></text>
<text id="inputValue3_2" fill="#5188C7" xml:space="preserve" style="white-space: pre" font-family="Roboto" font-size="48" letter-spacing="0em"><tspan x="152" y="240.406">6</tspan></text>
<text id="inputValue3_3" fill="#D9D9D9" xml:space="preserve" style="white-space: pre" font-family="Roboto" font-size="48" letter-spacing="0em"><tspan x="180" y="239.406">?</tspan></text>
<text id="inputValue4_1" fill="#D9D9D9" xml:space="preserve" style="white-space: pre" font-family="Roboto" font-size="48" letter-spacing="0em"><tspan x="125" y="296.406">?</tspan></text>
<text id="inputValue4_2" fill="#D9D9D9" xml:space="preserve" style="white-space: pre" font-family="Roboto" font-size="48" letter-spacing="0em"><tspan x="152" y="296.406">?</tspan></text>
<text id="inputValue4_3" fill="#5188C7" xml:space="preserve" style="white-space: pre" font-family="Roboto" font-size="48" letter-spacing="0em"><tspan x="179" y="296.406">8</tspan></text>
<text id="inputValue5_1" fill="#D9D9D9" xml:space="preserve" style="white-space: pre" font-family="Roboto" font-size="48" letter-spacing="0em"><tspan x="125" y="354.406">?</tspan></text>
<text id="inputValue5_2" fill="#D9D9D9" xml:space="preserve" style="white-space: pre" font-family="Roboto" font-size="48" letter-spacing="0em"><tspan x="153" y="354.406">?</tspan></text>
<text id="inputValue5_3" fill="#058F6F" xml:space="preserve" style="white-space: pre" font-family="Roboto" font-size="48" letter-spacing="0em"><tspan x="180" y="354.406">8</tspan></text>
<text id="inputValue6_1" fill="#5188C7" xml:space="preserve" style="white-space: pre" font-family="Roboto" font-size="48" letter-spacing="0em"><tspan x="180" y="418.406">0</tspan></text>
<text id="delitel" fill="#047415" xml:space="preserve" style="white-space: pre" font-family="Roboto" font-size="48" letter-spacing="0em"><tspan x="254" y="72.4062">2</tspan></text>
<text id="chastnoeInput3" fill="#FF5656" xml:space="preserve" style="white-space: pre" font-family="Roboto" font-size="48" letter-spacing="0em"><tspan x="310" y="128.406">4</tspan></text>
<text id="chastnoeInput2" fill="#FF5656" xml:space="preserve" style="white-space: pre" font-family="Roboto" font-size="48" letter-spacing="0em"><tspan x="282" y="128.406">8</tspan></text>
<text id="chastnoeInput1" fill="#FF5656" xml:space="preserve" style="white-space: pre" font-family="Roboto" font-size="48" letter-spacing="0em"><tspan x="254" y="128.406">1</tspan></text>
<g id="inputZoneGroup">
<rect id="inputZone16" x="180.5" y="378.5" width="26" height="43" fill="#C1FDFA" fill-opacity="0.13" stroke="white"/>
<rect id="inputZone15" x="180.5" y="314.5" width="26" height="43" fill="#C1FDFA" fill-opacity="0.13" stroke="white"/>
<rect id="inputZone14" x="153.5" y="314.5" width="26" height="43" fill="#C1FDFA" fill-opacity="0.13" stroke="white"/>
<rect id="inputZone13" x="125.5" y="314.5" width="26" height="43" fill="#C1FDFA" fill-opacity="0.13" stroke="white"/>
<rect id="inputZone12" x="179.5" y="257.5" width="26" height="43" fill="#C1FDFA" fill-opacity="0.13" stroke="white"/>
<rect id="inputZone11" x="152.5" y="257.5" width="26" height="43" fill="#C1FDFA" fill-opacity="0.13" stroke="white"/>
<rect id="inputZone10" x="124.5" y="257.5" width="26" height="43" fill="#C1FDFA" fill-opacity="0.13" stroke="white"/>
<rect id="inputZone09" x="179.5" y="201.5" width="26" height="43" fill="#C1FDFA" fill-opacity="0.13" stroke="white"/>
<rect id="inputZone08" x="151.5" y="201.5" width="26" height="43" fill="#C1FDFA" fill-opacity="0.13" stroke="white"/>
<rect id="inputZone07" x="123.5" y="201.5" width="26" height="43" fill="#C1FDFA" fill-opacity="0.13" stroke="white"/>
<path id="inputZone06" d="M180.5 145.5H206.5V188.5H180.5V145.5Z" fill="#C1FDFA" fill-opacity="0.13" stroke="white"/>
<rect id="inputZone05" x="152.5" y="145.5" width="26" height="43" fill="#C1FDFA" fill-opacity="0.13" stroke="white"/>
<rect id="inputZone04" x="124.5" y="145.5" width="26" height="43" fill="#C1FDFA" fill-opacity="0.13" stroke="white"/>
<g id="inputZone03">
<mask id="path-58-inside-1_147_19" fill="white">
<path d="M180 90H207V134H180V90Z"/>
</mask>
<path d="M180 90H207V134H180V90Z" fill="#C1FDFA" fill-opacity="0.13"/>
<path d="M180 90V89H179V90H180ZM207 90H208V89H207V90ZM207 134V135H208V134H207ZM180 134H179V135H180V134ZM180 91H207V89H180V91ZM206 90V134H208V90H206ZM207 133H180V135H207V133ZM181 134V90H179V134H181Z" fill="white" mask="url(#path-58-inside-1_147_19)"/>
</g>
<g id="inputZone02">
<mask id="path-60-inside-2_147_19" fill="white">
<path d="M152 90H179V134H152V90Z"/>
</mask>
<path d="M152 90H179V134H152V90Z" fill="#C1FDFA" fill-opacity="0.13"/>
<path d="M152 90V89H151V90H152ZM179 90H180V89H179V90ZM179 134V135H180V134H179ZM152 134H151V135H152V134ZM152 91H179V89H152V91ZM178 90V134H180V90H178ZM179 133H152V135H179V133ZM153 134V90H151V134H153Z" fill="white" mask="url(#path-60-inside-2_147_19)"/>
</g>
<g id="inputZone01">
<mask id="path-62-inside-3_147_19" fill="white">
<path d="M124 90H151V134H124V90Z"/>
</mask>
<path d="M124 90H151V134H124V90Z" fill="#C1FDFA" fill-opacity="0.13"/>
<path d="M124 90V89H123V90H124ZM151 90H152V89H151V90ZM151 134V135H152V134H151ZM124 134H123V135H124V134ZM124 91H151V89H124V91ZM150 90V134H152V90H150ZM151 133H124V135H151V133ZM125 134V90H123V134H125Z" fill="white" mask="url(#path-62-inside-3_147_19)"/>
</g>
</g>
<g id="inputChastnoe03">
<mask id="path-64-inside-4_147_19" fill="white">
<path d="M310 89H337V133H310V89Z"/>
</mask>
<path d="M310 89H337V133H310V89Z" fill="#FEFDFD" fill-opacity="0.24"/>
<path d="M310 89V88H309V89H310ZM337 89H338V88H337V89ZM337 133V134H338V133H337ZM310 133H309V134H310V133ZM310 90H337V88H310V90ZM336 89V133H338V89H336ZM337 132H310V134H337V132ZM311 133V89H309V133H311Z" fill="white" mask="url(#path-64-inside-4_147_19)"/>
</g>
<path id="inputChastnoe02" d="M282.5 89.5H308.5V132.5H282.5V89.5Z" fill="#FEFDFD" fill-opacity="0.24" stroke="white"/>
<g id="inputChastnoe01">
<mask id="path-67-inside-5_147_19" fill="white">
<path d="M254 89H281V133H254V89Z"/>
</mask>
<path d="M254 89H281V133H254V89Z" fill="#FEFDFD" fill-opacity="0.24"/>
<path d="M254 89V88H253V89H254ZM281 89H282V88H281V89ZM281 133V134H282V133H281ZM254 133H253V134H254V133ZM254 90H281V88H254V90ZM280 89V133H282V89H280ZM281 132H254V134H281V132ZM255 133V89H253V133H255Z" fill="white" mask="url(#path-67-inside-5_147_19)"/>
</g>
<g id="keyboard">
<g id="btn0">
<circle id="Ellipse 17" cx="321.224" cy="360.224" r="21.224" fill="#4996D4" stroke="white" stroke-width="2"/>
<text id="0" fill="white" xml:space="preserve" style="white-space: pre" font-family="Roboto" font-size="24" letter-spacing="0em"><tspan x="314.617" y="368.612">0</tspan></text>
</g>
<g id="btn9">
<circle id="Ellipse 17_2" cx="368.224" cy="311.224" r="21.224" fill="#4996D4" stroke="white" stroke-width="2"/>
<text id="9" fill="white" xml:space="preserve" style="white-space: pre" font-family="Roboto" font-size="24" letter-spacing="0em"><tspan x="361.617" y="319.612">9</tspan></text>
</g>
<g id="btn8">
<circle id="Ellipse 17_3" cx="320.224" cy="311.224" r="21.224" fill="#4996D4" stroke="white" stroke-width="2"/>
<text id="8" fill="white" xml:space="preserve" style="white-space: pre" font-family="Roboto" font-size="24" letter-spacing="0em"><tspan x="313.617" y="319.612">8</tspan></text>
</g>
<g id="btn7">
<circle id="Ellipse 17_4" cx="272.224" cy="311.224" r="21.224" fill="#4996D4" stroke="white" stroke-width="2"/>
<text id="7" fill="white" xml:space="preserve" style="white-space: pre" font-family="Roboto" font-size="24" letter-spacing="0em"><tspan x="265.617" y="319.612">7</tspan></text>
</g>
<g id="btn6">
<circle id="Ellipse 17_5" cx="368.224" cy="264.224" r="21.224" fill="#4996D4" stroke="white" stroke-width="2"/>
<text id="6" fill="white" xml:space="preserve" style="white-space: pre" font-family="Roboto" font-size="24" letter-spacing="0em"><tspan x="361.617" y="272.612">6</tspan></text>
</g>
<g id="btn5">
<circle id="Ellipse 17_6" cx="320.224" cy="264.224" r="21.224" fill="#4996D4" stroke="white" stroke-width="2"/>
<text id="5" fill="white" xml:space="preserve" style="white-space: pre" font-family="Roboto" font-size="24" letter-spacing="0em"><tspan x="313.617" y="272.612">5</tspan></text>
</g>
<g id="btn4">
<circle id="Ellipse 17_7" cx="272.224" cy="264.224" r="21.224" fill="#4996D4" stroke="white" stroke-width="2"/>
<text id="4" fill="white" xml:space="preserve" style="white-space: pre" font-family="Roboto" font-size="24" letter-spacing="0em"><tspan x="265.617" y="272.612">4</tspan></text>
</g>
<g id="btn3">
<circle id="Ellipse 17_8" cx="368.224" cy="217.224" r="21.224" fill="#4996D4" stroke="white" stroke-width="2"/>
<text id="3" fill="white" xml:space="preserve" style="white-space: pre" font-family="Roboto" font-size="24" letter-spacing="0em"><tspan x="361.617" y="225.612">3</tspan></text>
</g>
<g id="btn2">
<circle id="Ellipse 17_9" cx="320.224" cy="217.224" r="21.224" fill="#4996D4" stroke="white" stroke-width="2"/>
<text id="2" fill="white" xml:space="preserve" style="white-space: pre" font-family="Roboto" font-size="24" letter-spacing="0em"><tspan x="313.617" y="225.612">2</tspan></text>
</g>
<g id="btn1">
<circle id="Ellipse 17_10" cx="272.224" cy="217.224" r="21.224" fill="#4996D4" stroke="white" stroke-width="2"/>
<text id="1" fill="white" xml:space="preserve" style="white-space: pre" font-family="Roboto" font-size="24" letter-spacing="0em"><tspan x="265.617" y="225.612">1</tspan></text>
</g>
<g id="btnCheck">
<rect id="Rectangle 87" x="251" y="386" width="56" height="27" rx="6" fill="#FEB61A" stroke="white" stroke-width="2"/>
<text id="&#208;&#191;&#209;&#128;&#208;&#190;&#208;&#178;&#208;&#181;&#209;&#128;&#208;&#184;&#209;&#130;&#209;&#140;" fill="#895500" xml:space="preserve" style="white-space: pre" font-family="Roboto" font-size="10" letter-spacing="0em"><tspan x="254" y="403.418">&#x43f;&#x440;&#x43e;&#x432;&#x435;&#x440;&#x438;&#x442;&#x44c;</tspan></text>
</g>
<g id="btnNext">
<rect id="Rectangle 88" x="334" y="386" width="56" height="27" rx="6" fill="#10DA53" stroke="white" stroke-width="2"/>
<text id="&#208;&#180;&#208;&#176;&#208;&#187;&#209;&#140;&#209;&#136;&#208;&#181;" fill="#015C2A" xml:space="preserve" style="white-space: pre" font-family="Roboto" font-size="10" letter-spacing="0em"><tspan x="344" y="403.418">&#x434;&#x430;&#x43b;&#x44c;&#x448;&#x435;</tspan></text>
</g>
</g>
</g>
<defs>
<clipPath id="clip0_147_19">
<rect width="454" height="491" fill="white"/>
</clipPath>
</defs>
</svg>
